<svg width="173" height="40" viewBox="0 0 173 40" fill="none" xmlns="http://www.w3.org/2000/svg">
<path d="M105.457 14.512C107.089 14.512 108.401 15.016 109.393 16.024C110.401 17.016 110.905 18.408 110.905 20.2V28H107.545V20.656C107.545 19.616 107.281 18.824 106.753 18.28C106.225 17.72 105.505 17.44 104.593 17.44C103.681 17.44 102.953 17.72 102.409 18.28C101.881 18.824 101.617 19.616 101.617 20.656V28H98.2571V20.656C98.2571 19.616 97.9931 18.824 97.4651 18.28C96.9371 17.72 96.2171 17.44 95.3051 17.44C94.3771 17.44 93.6411 17.72 93.0971 18.28C92.5691 18.824 92.3051 19.616 92.3051 20.656V28H88.9451V14.704H92.3051V16.312C92.7371 15.752 93.2891 15.312 93.9611 14.992C94.6491 14.672 95.4011 14.512 96.2171 14.512C97.2571 14.512 98.1851 14.736 99.0011 15.184C99.8171 15.616 100.449 16.24 100.897 17.056C101.329 16.288 101.953 15.672 102.769 15.208C103.601 14.744 104.497 14.512 105.457 14.512Z" fill="white"/>
<path d="M119.997 28.216C118.717 28.216 117.565 27.936 116.541 27.376C115.517 26.8 114.709 25.992 114.117 24.952C113.541 23.912 113.253 22.712 113.253 21.352C113.253 19.992 113.549 18.792 114.141 17.752C114.749 16.712 115.573 15.912 116.613 15.352C117.653 14.776 118.813 14.488 120.093 14.488C121.373 14.488 122.533 14.776 123.573 15.352C124.613 15.912 125.429 16.712 126.021 17.752C126.629 18.792 126.933 19.992 126.933 21.352C126.933 22.712 126.621 23.912 125.997 24.952C125.389 25.992 124.557 26.8 123.501 27.376C122.461 27.936 121.293 28.216 119.997 28.216ZM119.997 25.288C120.605 25.288 121.173 25.144 121.701 24.856C122.245 24.552 122.677 24.104 122.997 23.512C123.317 22.92 123.477 22.2 123.477 21.352C123.477 20.088 123.141 19.12 122.469 18.448C121.813 17.76 121.005 17.416 120.045 17.416C119.085 17.416 118.277 17.76 117.621 18.448C116.981 19.12 116.661 20.088 116.661 21.352C116.661 22.616 116.973 23.592 117.597 24.28C118.237 24.952 119.037 25.288 119.997 25.288Z" fill="white"/>
<path d="M136.766 14.512C138.35 14.512 139.63 15.016 140.606 16.024C141.582 17.016 142.07 18.408 142.07 20.2V28H138.71V20.656C138.71 19.6 138.446 18.792 137.918 18.232C137.39 17.656 136.67 17.368 135.758 17.368C134.83 17.368 134.094 17.656 133.55 18.232C133.022 18.792 132.758 19.6 132.758 20.656V28H129.398V14.704H132.758V16.36C133.206 15.784 133.774 15.336 134.462 15.016C135.166 14.68 135.934 14.512 136.766 14.512Z" fill="white"/>
<path d="M157.625 21.064C157.625 21.544 157.593 21.976 157.529 22.36H147.809C147.889 23.32 148.225 24.072 148.817 24.616C149.409 25.16 150.137 25.432 151.001 25.432C152.249 25.432 153.137 24.896 153.665 23.824H157.289C156.905 25.104 156.169 26.16 155.081 26.992C153.993 27.808 152.657 28.216 151.073 28.216C149.793 28.216 148.641 27.936 147.617 27.376C146.609 26.8 145.817 25.992 145.241 24.952C144.681 23.912 144.401 22.712 144.401 21.352C144.401 19.976 144.681 18.768 145.241 17.728C145.801 16.688 146.585 15.888 147.593 15.328C148.601 14.768 149.761 14.488 151.073 14.488C152.337 14.488 153.465 14.76 154.457 15.304C155.465 15.848 156.241 16.624 156.785 17.632C157.345 18.624 157.625 19.768 157.625 21.064ZM154.145 20.104C154.129 19.24 153.817 18.552 153.209 18.04C152.601 17.512 151.857 17.248 150.977 17.248C150.145 17.248 149.441 17.504 148.865 18.016C148.305 18.512 147.961 19.208 147.833 20.104H154.145Z" fill="white"/>
<path d="M172.798 14.704L164.566 34.288H160.99L163.87 27.664L158.542 14.704H162.31L165.742 23.992L169.222 14.704H172.798Z" fill="white"/>
<path d="M52.5174 28.216C51.4294 28.216 50.4534 28.024 49.5894 27.64C48.7254 27.24 48.0374 26.704 47.5254 26.032C47.0294 25.36 46.7574 24.616 46.7094 23.8H50.0934C50.1574 24.312 50.4054 24.736 50.8374 25.072C51.2854 25.408 51.8374 25.576 52.4934 25.576C53.1334 25.576 53.6294 25.448 53.9814 25.192C54.3494 24.936 54.5334 24.608 54.5334 24.208C54.5334 23.776 54.3094 23.456 53.8614 23.248C53.4294 23.024 52.7334 22.784 51.7734 22.528C50.7814 22.288 49.9654 22.04 49.3254 21.784C48.7014 21.528 48.1574 21.136 47.6934 20.608C47.2454 20.08 47.0214 19.368 47.0214 18.472C47.0214 17.736 47.2294 17.064 47.6454 16.456C48.0774 15.848 48.6854 15.368 49.4694 15.016C50.2694 14.664 51.2054 14.488 52.2774 14.488C53.8614 14.488 55.1254 14.888 56.0694 15.688C57.0134 16.472 57.5334 17.536 57.6294 18.88H54.4134C54.3654 18.352 54.1414 17.936 53.7414 17.632C53.3574 17.312 52.8374 17.152 52.1814 17.152C51.5734 17.152 51.1014 17.264 50.7654 17.488C50.4454 17.712 50.2854 18.024 50.2854 18.424C50.2854 18.872 50.5094 19.216 50.9574 19.456C51.4054 19.68 52.1014 19.912 53.0454 20.152C54.0054 20.392 54.7974 20.64 55.4214 20.896C56.0454 21.152 56.5814 21.552 57.0294 22.096C57.4934 22.624 57.7334 23.328 57.7494 24.208C57.7494 24.976 57.5334 25.664 57.1014 26.272C56.6854 26.88 56.0774 27.36 55.2774 27.712C54.4934 28.048 53.5734 28.216 52.5174 28.216ZM77.0196 14.512C78.6516 14.512 79.9636 15.016 80.9556 16.024C81.9636 17.016 82.4676 18.408 82.4676 20.2V28H79.1076V20.656C79.1076 19.616 78.8436 18.824 78.3156 18.28C77.7876 17.72 77.0676 17.44 76.1556 17.44C75.2436 17.44 74.5156 17.72 73.9716 18.28C73.4436 18.824 73.1796 19.616 73.1796 20.656V28H69.8196V20.656C69.8196 19.616 69.5556 18.824 69.0276 18.28C68.4996 17.72 67.7796 17.44 66.8676 17.44C65.9396 17.44 65.2036 17.72 64.6596 18.28C64.1316 18.824 63.8676 19.616 63.8676 20.656V28H60.5076V14.704H63.8676V16.312C64.2996 15.752 64.8516 15.312 65.5236 14.992C66.2116 14.672 66.9636 14.512 67.7796 14.512C68.8196 14.512 69.7476 14.736 70.5636 15.184C71.3796 15.616 72.0116 16.24 72.4596 17.056C72.8916 16.288 73.5156 15.672 74.3316 15.208C75.1636 14.744 76.0596 14.512 77.0196 14.512Z" fill="white"/>
<path d="M34.1422 5.85781C30.3647 2.08031 25.3422 0 20 0C14.6578 0 9.63531 2.08031 5.85781 5.85781C2.08031 9.63531 0 14.6578 0 20C0 25.3422 2.08039 30.3646 5.85781 34.1422C9.63523 37.9198 14.6578 40 20 40C25.3422 40 30.3647 37.9197 34.1422 34.1422C37.9197 30.3647 40 25.3422 40 20C40 14.6578 37.9196 9.63539 34.1422 5.85781Z" fill="#33CC95"/>
<g clip-path="url(#clip0)">
<path d="M20.5714 8V33.1429" stroke="white" stroke-width="2" stroke-linecap="round" stroke-linejoin="round"/>
<path d="M26.2857 12.5714H17.7143C16.6534 12.5714 15.636 12.9929 14.8859 13.743C14.1357 14.4931 13.7143 15.5106 13.7143 16.5714C13.7143 17.6323 14.1357 18.6497 14.8859 19.3999C15.636 20.15 16.6534 20.5714 17.7143 20.5714H23.4286C24.4894 20.5714 25.5069 20.9929 26.257 21.743C27.0072 22.4932 27.4286 23.5106 27.4286 24.5714C27.4286 25.6323 27.0072 26.6497 26.257 27.3999C25.5069 28.15 24.4894 28.5714 23.4286 28.5714H13.7143" stroke="white" stroke-width="2" stroke-linecap="round" stroke-linejoin="round"/>
</g>
<defs>
<clipPath id="clip0">
<rect width="27.4286" height="27.4286" fill="white" transform="translate(6.85715 6.85714)"/>
</clipPath>
</defs>
</svg>
